<svg xmlns="http://www.w3.org/2000/svg" viewBox="0 0 452.813 192.533"><path d="m3067.09 1152.93 71.92 156.64 72.13-156.64zm72.64 290.33-255.6-544.494 63.71.175 93.99 198.539h196.21l94.27-198.558 63.73-.156-256.31 544.494M2817.43 1437.16h-61.93V898.766h61.93v538.394M2538.08 1010.89c-43.79-36.831-111.62-55.249-203.5-55.249h-44.75v424.649h45.47c176.56 0 264.85-85.06 264.85-215.14 0-67.93-20.69-119.35-62.07-154.26zm52.35 351.04c-47.77 50.14-143.74 75.23-210.44 75.23h-152.08V898.766h146.16c95.51 0 168.71 26.386 219.61 79.199 45.58 47.035 68.39 108.475 68.39 184.315 0 69.59-23.88 149.49-71.64 199.65M1557.4 1443.98l-195.84-417.26-195.13 417.26-168.465-545.214 65.575-.02 116.68 380.114 181.34-380.122 182.26 379.402 115.74-379.394 66.3.02-168.46 545.214M3247.72 557.262l-40.31 8.613c-17.29 3.828-32.17 12.324-44.65 25.527-12.48 13.184-18.71 27.911-18.71 44.2 0 21.093 9.12 40.507 27.36 58.242 18.24 17.715 39.36 26.601 63.36 26.601 24.96 0 46.56-8.086 64.8-24.277 18.23-16.172 27.35-35.684 27.35-58.516h61.93c-4.8 44.141-23.53 79.2-56.17 105.118-28.79 23.027-61.91 34.55-99.36 34.55-43.2 0-79.19-14.648-108-43.906-28.79-29.297-43.19-63.144-43.19-101.523 0-32.657 12-60.606 36-83.887s58.55-39.727 103.67-49.316l33.85-7.208c24.47-4.804 43.67-15.253 57.6-31.308 13.92-16.094 20.88-34.692 20.88-55.801 0-28.812-9.85-53.281-29.52-73.441-19.68-20.168-42.96-30.25-69.84-30.25h-8.65c-26.88 0-49.9 9.84-69.1 29.531-19.22 19.668-28.81 43.418-28.81 71.269h-61.92c0-42.25 14.16-78.96 42.48-110.16 30.24-33.609 69.59-50.39 118.07-50.39 48.48 0 88.81 16.289 120.96 48.871 32.17 32.597 48.24 73.09 48.24 121.508 0 73.804-49.43 122.457-148.32 145.953M2836.39 472.203c39.78 0 73.1 14.981 99.93 44.981 26.86 29.98 40.28 64.394 40.28 103.261 0 45.098-16.82 80.84-50.41 107.227-33.61 26.367-81.35 39.57-143.29 39.57h-136.79V238.84h61.92v471.527h78.49c37.91 0 68.98-8.613 93.23-25.82 24.23-17.207 36.36-39.219 36.36-65.996 0-26.309-10.33-48.301-30.96-65.977-23.53-20.097-57.85-30.136-102.96-30.136h-53.28l221.05-284.219 45.94 33.57-159.51 200.414M2139.96 767.242h-61.93V541.891h-261.36v225.351h-61.91V238.84h61.91v246.176h261.36V238.84h61.93v528.402M1689.1 767.242h-357.12v-56.875h146.87V238.84h61.93v471.527h148.32v56.875M1199.15 359.371c-41.04-42.012-91.33-63.012-150.84-63.012-59.533 0-109.572 20.282-150.122 60.84-40.571 40.551-60.84 90.59-60.84 150.121 0 59.512 20.269 109.551 60.84 150.118 40.55 40.566 90.589 60.839 150.122 60.839 60.95 0 111.6-20.644 151.92-61.914 40.32-41.289 60.48-90.722 60.48-148.32 0-57.129-20.52-106.684-61.56-148.672zm39.96 338.75c-50.89 52.324-114.48 78.477-190.8 78.477-74.415 0-137.525-26.153-189.361-78.477-51.84-52.324-77.761-115.918-77.761-190.801 0-74.39 26.031-137.871 78.117-190.429 52.074-52.559 115.074-78.852 189.005-78.852 73.9 0 136.91 26.039 189 78.133 52.07 52.066 78.12 116.027 78.12 191.871 0 74.395-25.44 137.754-76.32 190.078M587.711 472.203c39.777 0 73.086 14.981 99.934 44.981 26.843 29.98 40.265 64.394 40.265 103.261 0 45.098-16.812 80.84-50.398 107.227-33.606 26.367-81.364 39.57-143.285 39.57H397.426V238.84h61.926v471.527h78.476c37.91 0 68.996-8.613 93.242-25.82 24.227-17.207 36.356-39.219 36.356-65.996 0-26.309-10.328-48.301-30.957-65.977-23.52-20.097-57.852-30.136-102.961-30.136H480.23l221.04-284.219 45.957 33.57-159.516 200.414M234.246 320.66c-20.961-16.64-49.738-24.941-86.348-24.941h-85.98v416.094h86.719c35.164 0 62.031-6.856 80.582-20.528 18.539-13.672 27.816-32.519 27.816-56.523 0-24.004-7.969-43.692-23.867-59.043-17.852-17.266-42.918-25.918-75.219-25.918h-58.59v-56.875h60.739c31.328 0 56.754-8.438 76.281-25.293 19.527-16.875 29.301-38.793 29.301-65.781 0-30.84-10.481-64.571-31.434-81.192zm73.914 155.274c-13.933 21.621-31.93 36.757-54 45.429 19.68 10.059 34.918 25.41 45.719 46.016 10.801 20.605 16.199 44.082 16.199 70.449 0 37.852-14.398 68.535-43.203 92.031-30.719 24.922-74.406 37.383-131.039 37.383H0V238.84h142.559c60.949 0 108.238 15.859 141.839 47.582 29.762 27.867 44.641 73.437 44.641 116.699 0 26.918-6.961 51.192-20.879 72.813M2130.15 955.641h-233.28v424.649h231.12v56.87h-293.04V898.766h295.2v56.875" style="fill:#fff;fill-opacity:1;fill-rule:nonzero;stroke:none" transform="matrix(.13333 0 0 -.13333 0 192.533)"/><path d="M1978.91 1133.49h130v56.88h-130v-56.88" style="fill:#fff;fill-opacity:1;fill-rule:nonzero;stroke:none" transform="matrix(.13333 0 0 -.13333 0 192.533)"/><path d="M0 0h3396.05v135.48H0V0" style="fill:#d31f29;fill-opacity:1;fill-rule:nonzero;stroke:none" transform="matrix(.13333 0 0 -.13333 0 192.533)"/><path d="M578.707 1260.86h-32.961v-162.97H353.121v162.97h-32.965V900.855h32.473v167.505h193.609V900.855h32.469v360.005M236.938 1260.86H0v-30.04h102.047V900.855h32.965v331.075h101.926v28.93M2531.78 295.719H2298.5v414.648h231.11v56.875h-293.02V238.84h295.19v56.879" style="fill:#fff;fill-opacity:1;fill-rule:nonzero;stroke:none" transform="matrix(.13333 0 0 -.13333 0 192.533)"/><path d="M2380.61 483.57h130v56.879h-130V483.57M873.73 929.918H715.641v136.972l-.496 30.02v133.91h162.964v30.04H682.676V900.855H873.73v29.063" style="fill:#fff;fill-opacity:1;fill-rule:nonzero;stroke:none" transform="matrix(.13333 0 0 -.13333 0 192.533)"/><path d="M794.824 1066.89h64.156v30.02h-64.156v-30.02" style="fill:#fff;fill-opacity:1;fill-rule:nonzero;stroke:none" transform="matrix(.13333 0 0 -.13333 0 192.533)"/></svg>